<mxfile host="app.diagrams.net" modified="2021-04-21T13:20:57.577Z" agent="5.0 (Windows NT 10.0; Win64; x64) AppleWebKit/537.36 (KHTML, like Gecko) Chrome/90.0.4430.72 Safari/537.36" etag="4qui14vD69tC-4-ODszk" version="14.6.5" type="github">
  <diagram id="LKqxHNGJCDbUwdLK4aQo" name="Page-1">
    <mxGraphModel dx="1102" dy="582" grid="1" gridSize="10" guides="1" tooltips="1" connect="1" arrows="1" fold="1" page="1" pageScale="1" pageWidth="1169" pageHeight="827" background="none" math="0" shadow="0">
      <root>
        <mxCell id="0" />
        <mxCell id="1" parent="0" />
        <mxCell id="mIiz4yx-cXE3IoX7XUP3-2" style="edgeStyle=orthogonalEdgeStyle;rounded=0;orthogonalLoop=1;jettySize=auto;html=1;entryX=0;entryY=0.5;entryDx=0;entryDy=0;" edge="1" parent="1" source="mIiz4yx-cXE3IoX7XUP3-1" target="mIiz4yx-cXE3IoX7XUP3-3">
          <mxGeometry relative="1" as="geometry">
            <mxPoint x="390" y="260" as="targetPoint" />
          </mxGeometry>
        </mxCell>
        <mxCell id="mIiz4yx-cXE3IoX7XUP3-1" value="Alpha&lt;br&gt;red" style="whiteSpace=wrap;html=1;aspect=fixed;" vertex="1" parent="1">
          <mxGeometry x="200" y="220" width="80" height="80" as="geometry" />
        </mxCell>
        <mxCell id="mIiz4yx-cXE3IoX7XUP3-3" value="" style="whiteSpace=wrap;html=1;aspect=fixed;" vertex="1" parent="1">
          <mxGeometry x="390" y="220" width="80" height="80" as="geometry" />
        </mxCell>
      </root>
    </mxGraphModel>
  </diagram>
</mxfile>
